<svg width="225" height="225" viewBox="0 0 225 225" fill="none" xmlns="http://www.w3.org/2000/svg">
<g clip-path="url(#clip0)">
<ellipse cx="113.097" cy="112.338" rx="68.668" ry="68.3066" fill="#97BDF9" fill-opacity="0.4"/>
<path d="M168.848 144.667C169.234 144.17 169.142 143.453 168.643 143.065L162.915 138.619C162.416 138.231 161.698 138.319 161.312 138.816L151.3 151.712C150.915 152.209 151.007 152.926 151.506 153.314L157.234 157.761C157.733 158.148 158.451 158.06 158.837 157.563L168.848 144.667Z" fill="#1C2F43"/>
<path d="M164.825 134.292C165.857 132.964 165.622 131.057 164.302 130.032L143.083 113.559C141.763 112.534 139.856 112.779 138.825 114.108L121.789 136.052C120.758 137.38 120.993 139.287 122.313 140.313L143.532 156.785C144.852 157.81 146.758 157.565 147.789 156.236L164.825 134.292Z" fill="url(#paint0_linear)"/>
<mask id="mask0" style="mask-type:alpha" maskUnits="userSpaceOnUse" x="119" y="111" width="48" height="48">
<path d="M164.825 134.292C165.857 132.964 165.622 131.057 164.302 130.032L143.083 113.559C141.763 112.534 139.856 112.779 138.825 114.108L121.789 136.052C120.758 137.38 120.993 139.287 122.313 140.313L143.532 156.785C144.852 157.81 146.758 157.565 147.789 156.236L164.825 134.292Z" fill="url(#paint1_linear)"/>
</mask>
<g mask="url(#mask0)">
<path d="M150.333 116.399C150.718 115.903 150.625 115.187 150.126 114.799L144.398 110.353C143.899 109.965 143.182 110.052 142.797 110.548L119.326 140.782C118.941 141.277 119.034 141.994 119.533 142.382L125.261 146.828C125.76 147.216 126.477 147.128 126.862 146.632L150.333 116.399Z" fill="#1E4B7E"/>
</g>
<path fill-rule="evenodd" clip-rule="evenodd" d="M159.107 132.195C159.576 132.56 159.668 133.227 159.311 133.686L154.47 139.922C154.114 140.381 154.206 141.049 154.675 141.413C155.144 141.777 155.814 141.7 156.17 141.241L161.011 135.006C162.08 133.628 161.806 131.626 160.398 130.532L153.174 124.924C152.704 124.56 152.035 124.637 151.679 125.096C151.322 125.555 151.414 126.223 151.883 126.587L159.107 132.195Z" fill="#3C74B2"/>
<path d="M138.349 115.497C138.72 115.02 138.619 114.321 138.124 113.937L122.584 101.872C122.089 101.488 121.387 101.563 121.016 102.041L118.555 105.21C118.185 105.688 118.286 106.386 118.781 106.771L134.321 118.835C134.816 119.22 135.518 119.144 135.889 118.667L138.349 115.497Z" fill="#1C2F43"/>
<path d="M125.478 132.077C125.849 131.599 125.748 130.901 125.253 130.516L109.713 118.452C109.217 118.067 108.516 118.143 108.145 118.62L105.684 121.79C105.314 122.267 105.414 122.966 105.91 123.35L121.45 135.415C121.945 135.799 122.647 135.724 123.018 135.247L125.478 132.077Z" fill="#1C2F43"/>
<path d="M147.997 113.962C148.377 113.473 148.28 112.762 147.78 112.374L142.053 107.928C141.553 107.54 140.84 107.622 140.46 108.112L116.386 139.122C116.006 139.612 116.103 140.323 116.602 140.71L122.33 145.157C122.829 145.545 123.542 145.462 123.922 144.973L147.997 113.962Z" fill="#1C2F43"/>
<path fill-rule="evenodd" clip-rule="evenodd" d="M203.268 200.275C209.851 205.153 216.8 207.654 220.565 208.341C222.606 208.714 223.959 210.671 223.586 212.712C223.213 214.754 221.256 216.106 219.215 215.734C214.3 214.837 206.285 211.865 198.794 206.313C191.252 200.725 184.005 192.339 181.187 180.551C177.84 166.553 168.892 159.892 162.24 154.942C161.385 154.305 160.569 153.698 159.807 153.106C158.167 151.833 157.87 149.473 159.143 147.834C160.416 146.194 162.776 145.897 164.415 147.17C165.078 147.684 165.83 148.239 166.649 148.844C173.327 153.771 184.478 161.998 188.496 178.803C190.798 188.433 196.736 195.434 203.268 200.275Z" fill="#1C2F43"/>
<path d="M67.1091 65.6828C67.4949 65.1859 68.2125 65.0974 68.712 65.4852L74.4395 69.9317C74.939 70.3194 75.0311 71.0366 74.6454 71.5335L64.6336 84.4297C64.2478 84.9266 63.5302 85.0151 63.0307 84.6274L57.3032 80.1809C56.8037 79.7931 56.7116 79.076 57.0973 78.579L67.1091 65.6828Z" fill="#1C2F43"/>
<path d="M77.7815 66.7171C78.8126 65.3889 80.7188 65.1432 82.0392 66.1683L103.258 82.641C104.578 83.6661 104.813 85.5737 103.782 86.9019L86.7456 108.846C85.7145 110.174 83.8083 110.42 82.4879 109.395L61.2694 92.922C59.949 91.897 59.7144 89.9893 60.7455 88.6611L77.7815 66.7171Z" fill="url(#paint2_linear)"/>
<mask id="mask1" style="mask-type:alpha" maskUnits="userSpaceOnUse" x="58" y="64" width="48" height="48">
<path d="M77.7815 66.7171C78.8126 65.3889 80.7188 65.1432 82.0392 66.1683L103.258 82.641C104.578 83.6661 104.813 85.5737 103.782 86.9019L86.7456 108.846C85.7145 110.174 83.8083 110.42 82.4879 109.395L61.2694 92.922C59.949 91.897 59.7144 89.9893 60.7455 88.6611L77.7815 66.7171Z" fill="url(#paint3_linear)"/>
</mask>
<g mask="url(#mask1)">
<path d="M99.0851 76.614C99.4701 76.118 100.167 76.0146 100.641 76.3829L106.083 80.6071C106.557 80.9755 106.63 81.6761 106.245 82.1721L82.7735 112.405C82.3885 112.901 81.6917 113.005 81.2172 112.636L75.776 108.412C75.3016 108.044 75.229 107.343 75.6141 106.847L99.0851 76.614Z" fill="#1E4B7E"/>
</g>
<path fill-rule="evenodd" clip-rule="evenodd" d="M81.3841 71.5616C80.9102 71.1937 80.2343 71.2713 79.8744 71.7349L74.987 78.0304C74.6271 78.494 73.9512 78.5716 73.4773 78.2037C73.0034 77.8358 72.911 77.1617 73.2709 76.6981L78.1583 70.4026C79.238 69.0118 81.2658 68.7791 82.6875 69.8828L89.9809 75.545C90.4548 75.9129 90.5472 76.587 90.1873 77.0506C89.8274 77.5141 89.1515 77.5917 88.6776 77.2238L81.3841 71.5616Z" fill="#3C74B2"/>
<path fill-rule="evenodd" clip-rule="evenodd" d="M23.4318 23.5552C16.8492 18.6771 9.90004 16.177 6.13512 15.4896C4.09374 15.1169 2.74118 13.1598 3.11407 11.1184C3.48696 9.07691 5.44411 7.7241 7.48548 8.09679C12.3999 8.99402 20.4147 11.9654 27.9063 17.5171C35.448 23.1059 42.6949 31.4919 45.513 43.2793C48.8598 57.2777 57.8086 63.9383 64.4601 68.8889C65.3148 69.5251 66.1316 70.133 66.8937 70.7247C68.5328 71.9971 68.8298 74.3576 67.5572 75.9969C66.2846 77.6362 63.9242 77.9335 62.2851 76.661C61.6219 76.1461 60.8699 75.5914 60.0507 74.9869C53.3727 70.0599 42.2221 61.833 38.2042 45.0276C35.902 35.3979 29.9643 28.3961 23.4318 23.5552Z" fill="#1C2F43"/>
<path d="M101.346 78.3692C101.731 77.8732 102.448 77.7855 102.947 78.1733L108.675 82.6198C109.174 83.0075 109.267 83.7239 108.882 84.2199L85.4111 114.453C85.026 114.949 84.309 115.037 83.8096 114.649L78.082 110.202C77.5825 109.815 77.4898 109.098 77.8748 108.602L101.346 78.3692Z" fill="#1C2F43"/>
<path fill-rule="evenodd" clip-rule="evenodd" d="M102.266 79.9118C102.509 79.5951 102.963 79.5354 103.279 79.7785L107.754 83.2131C108.071 83.4562 108.13 83.9099 107.887 84.2266C107.644 84.5432 107.19 84.6029 106.874 84.3598L102.399 80.9253C102.083 80.6822 102.023 80.2284 102.266 79.9118Z" fill="#365E89"/>
<path fill-rule="evenodd" clip-rule="evenodd" d="M141.004 109.659C141.247 109.342 141.701 109.282 142.018 109.525L146.492 112.96C146.809 113.203 146.869 113.657 146.625 113.973C146.382 114.29 145.929 114.35 145.612 114.107L141.137 110.672C140.821 110.429 140.761 109.975 141.004 109.659Z" fill="#365E89"/>
</g>
<defs>
<linearGradient id="paint0_linear" x1="145.312" y1="132.591" x2="131.92" y2="149.84" gradientUnits="userSpaceOnUse">
<stop stop-color="#2A5B92"/>
<stop offset="1" stop-color="#1E4877"/>
</linearGradient>
<linearGradient id="paint1_linear" x1="145.312" y1="132.591" x2="131.92" y2="149.84" gradientUnits="userSpaceOnUse">
<stop stop-color="#2A5B92"/>
<stop offset="1" stop-color="#1E4877"/>
</linearGradient>
<linearGradient id="paint2_linear" x1="84.2677" y1="85.2" x2="70.8766" y2="102.449" gradientUnits="userSpaceOnUse">
<stop stop-color="#2A5B92"/>
<stop offset="1" stop-color="#1E4877"/>
</linearGradient>
<linearGradient id="paint3_linear" x1="84.2677" y1="85.2" x2="70.8766" y2="102.449" gradientUnits="userSpaceOnUse">
<stop stop-color="#2A5B92"/>
<stop offset="1" stop-color="#1E4877"/>
</linearGradient>
<clipPath id="clip0">
<rect width="225" height="225" fill="white"/>
</clipPath>
</defs>
</svg>
