<svg width="250" height="263" viewBox="0 0 250 263" fill="none" xmlns="http://www.w3.org/2000/svg">
<path d="M250 242.238C250 253.358 194.036 262.372 125 262.372C55.9646 262.372 0.000244141 253.358 0.000244141 242.238C0.000244141 231.118 55.9646 222.104 125 222.104C194.036 222.104 250 231.118 250 242.238Z" fill="#28415C" fill-opacity="0.3"/>
<path fill-rule="evenodd" clip-rule="evenodd" d="M162.752 94.5873V64.386C162.752 43.9997 146.225 27.4733 125.839 27.4733C105.453 27.4733 88.9264 43.9997 88.9264 64.386V94.5873H162.752ZM125.839 0.627686C90.6264 0.627686 62.0808 29.1733 62.0808 64.386V121.433H189.597V64.386C189.597 29.1733 161.052 0.627686 125.839 0.627686Z" fill="url(#paint0_linear)"/>
<path d="M30.2014 99.6209C30.2014 93.1344 35.4598 87.876 41.9464 87.876H209.731C216.218 87.876 221.476 93.1344 221.476 99.6209V230.493C221.476 236.98 216.218 242.238 209.731 242.238H41.9464C35.4598 242.238 30.2014 236.98 30.2014 230.493V99.6209Z" fill="url(#paint1_linear)"/>
<mask id="mask0" style="mask-type:alpha" maskUnits="userSpaceOnUse" x="30" y="87" width="192" height="156">
<path d="M30.2014 99.6209C30.2014 93.1344 35.4598 87.876 41.9464 87.876H209.731C216.218 87.876 221.476 93.1344 221.476 99.6209V230.493C221.476 236.98 216.218 242.238 209.731 242.238H41.9464C35.4598 242.238 30.2014 236.98 30.2014 230.493V99.6209Z" fill="#2A5B92"/>
</mask>
<g mask="url(#mask0)">
</g>
<path fill-rule="evenodd" clip-rule="evenodd" d="M38.5908 106.332C38.5908 100.772 43.098 96.2653 48.6579 96.2653H68.7921C71.5721 96.2653 73.8257 98.5189 73.8257 101.299C73.8257 104.079 71.5721 106.332 68.7921 106.332H48.6579V166.735C48.6579 169.515 46.4043 171.769 43.6244 171.769C40.8444 171.769 38.5908 169.515 38.5908 166.735V106.332Z" fill="#3C74B3"/>
<path d="M159.396 165.057C159.396 183.59 144.372 198.614 125.839 198.614C107.306 198.614 92.2821 183.59 92.2821 165.057C92.2821 146.524 107.306 131.5 125.839 131.5C144.372 131.5 159.396 146.524 159.396 165.057Z" fill="#99B6D8"/>
<path fill-rule="evenodd" clip-rule="evenodd" d="M130.342 159.851C133.071 158.252 134.904 155.289 134.904 151.898C134.904 146.81 130.78 142.686 125.693 142.686C120.605 142.686 116.481 146.81 116.481 151.898C116.481 155.289 118.314 158.253 121.043 159.851L113.849 187.429H137.536L130.342 159.851Z" fill="#28415C"/>
<path fill-rule="evenodd" clip-rule="evenodd" d="M124.999 10.6277C125.036 12.4807 123.564 14.0128 121.711 14.0499C105.975 14.3646 94.9308 21.0763 87.427 29.3502C79.8466 37.7083 75.8945 47.6619 74.5993 54.1381C74.2358 55.9554 72.4679 57.134 70.6506 56.7706C68.8333 56.4071 67.6547 54.6392 68.0182 52.8219C69.5194 45.316 73.9565 34.2126 82.4556 24.8415C91.0311 15.386 103.757 7.69621 121.577 7.3398C123.43 7.30274 124.962 8.77479 124.999 10.6277Z" fill="#365E89"/>
<defs>
<linearGradient id="paint0_linear" x1="125.839" y1="0.627686" x2="125.839" y2="121.433" gradientUnits="userSpaceOnUse">
<stop stop-color="#28415C"/>
<stop offset="1" stop-color="#152536"/>
</linearGradient>
<linearGradient id="paint1_linear" x1="125.839" y1="150.163" x2="125.839" y2="249.686" gradientUnits="userSpaceOnUse">
<stop stop-color="#2A5B92"/>
<stop offset="1" stop-color="#1E4877"/>
</linearGradient>
</defs>
</svg>
