<svg width="350" height="350" viewBox="0 0 350 350" fill="none" xmlns="http://www.w3.org/2000/svg">
<path d="M115 112.502C115 105.807 120.442 100.38 127.155 100.38H223.524C230.236 100.38 235.678 105.807 235.678 112.502V290.877C235.678 297.572 230.236 303 223.524 303H127.155C120.442 303 115 297.572 115 290.877V112.502Z" fill="url(#paint0_linear)"/>
<path d="M123.94 113.684C123.94 111.273 125.906 109.319 128.333 109.319H222.346C224.773 109.319 226.74 111.273 226.74 113.684V267.348C226.74 269.759 224.773 271.713 222.346 271.713H128.333C125.906 271.713 123.94 269.759 123.94 267.348V113.684Z" fill="url(#paint1_linear)"/>
<path d="M185.023 287.357C185.023 292.705 180.688 297.041 175.339 297.041C169.991 297.041 165.655 292.705 165.655 287.357C165.655 282.008 169.991 277.672 175.339 277.672C180.688 277.672 185.023 282.008 185.023 287.357Z" fill="#0F2F52"/>
<g filter="url(#filter0_d)">
<path d="M220.779 190.516C220.779 215.612 200.435 235.957 175.339 235.957C150.243 235.957 129.898 215.612 129.898 190.516C129.898 165.42 150.243 145.075 175.339 145.075C200.435 145.075 220.779 165.42 220.779 190.516Z" fill="#E8F1FF"/>
</g>
<path fill-rule="evenodd" clip-rule="evenodd" d="M173.104 208.394C173.104 207.16 174.098 206.159 175.324 206.159H175.354C176.58 206.159 177.574 207.16 177.574 208.394C177.574 209.628 176.58 210.629 175.354 210.629H175.324C174.098 210.629 173.104 209.628 173.104 208.394Z" fill="#2C3E50"/>
<path fill-rule="evenodd" clip-rule="evenodd" d="M176.084 198.424C173.572 198.424 171.163 199.378 169.387 201.077C168.533 201.894 167.149 201.894 166.295 201.077C165.442 200.26 165.442 198.936 166.296 198.119C168.892 195.636 172.413 194.241 176.084 194.241C179.755 194.241 183.276 195.636 185.873 198.119C186.727 198.936 186.727 200.26 185.873 201.077C185.02 201.894 183.635 201.894 182.782 201.077C181.005 199.378 178.596 198.424 176.084 198.424Z" fill="#2C3E50"/>
<path fill-rule="evenodd" clip-rule="evenodd" d="M172.781 183.894C173.185 185.032 172.75 186.317 171.762 186.907L160.081 193.885C159.093 194.476 157.853 194.191 157.173 193.219C156.493 192.246 156.58 190.882 157.378 190.019C160.885 186.225 165.316 183.578 170.158 182.383C171.259 182.112 172.378 182.756 172.781 183.894ZM181.084 184.544C181.457 183.255 182.729 182.536 183.924 182.938C188.034 184.323 191.767 186.773 194.796 190.074C195.677 191.034 195.67 192.583 194.78 193.533C193.89 194.483 192.454 194.475 191.573 193.515C189.066 190.782 185.975 188.754 182.572 187.607C181.377 187.205 180.711 185.833 181.084 184.544Z" fill="#2C3E50"/>
<path fill-rule="evenodd" clip-rule="evenodd" d="M185.765 176.51C180.745 174.878 175.409 174.447 170.191 175.252C168.969 175.441 167.825 174.608 167.636 173.392C167.446 172.177 168.283 171.039 169.505 170.85C175.419 169.938 181.466 170.426 187.155 172.276C192.844 174.126 198.015 177.285 202.246 181.496C203.12 182.366 203.12 183.777 202.246 184.646C201.372 185.516 199.954 185.516 199.08 184.646C195.347 180.93 190.785 178.142 185.765 176.51ZM162.54 174.685C163.111 175.688 162.819 176.958 161.867 177.614L151.29 184.905C150.338 185.561 149.041 185.387 148.298 184.502C147.555 183.618 147.613 182.316 148.431 181.501C151.676 178.265 155.484 175.64 159.669 173.754C160.724 173.279 161.969 173.683 162.54 174.685Z" fill="#2C3E50"/>
<path fill-rule="evenodd" clip-rule="evenodd" d="M146.942 162.118C147.814 161.246 149.229 161.246 150.102 162.118L203.737 215.753C204.61 216.626 204.61 218.041 203.737 218.914C202.864 219.786 201.449 219.786 200.576 218.914L146.942 165.279C146.069 164.406 146.069 162.991 146.942 162.118Z" fill="#2C3E50"/>
<path fill-rule="evenodd" clip-rule="evenodd" d="M173.104 46C175.984 46 178.319 48.3346 178.319 51.2145L178.319 81.0116C178.319 83.8915 175.984 86.2261 173.104 86.2261C170.225 86.2261 167.89 83.8915 167.89 81.0116L167.89 51.2145C167.89 48.3346 170.225 46 173.104 46Z" fill="#0F2F52"/>
<path fill-rule="evenodd" clip-rule="evenodd" d="M219.982 58.1713C222.102 60.1214 222.239 63.4202 220.289 65.5394L203.139 84.1772C201.189 86.2964 197.89 86.4336 195.771 84.4835C193.652 82.5335 193.514 79.2347 195.464 77.1155L212.614 58.4777C214.564 56.3585 217.863 56.2213 219.982 58.1713Z" fill="#0F2F52"/>
<path fill-rule="evenodd" clip-rule="evenodd" d="M150.58 84.4838C152.699 82.5338 152.836 79.235 150.886 77.1158L133.736 58.478C131.786 56.3587 128.487 56.2216 126.368 58.1716C124.249 60.1216 124.112 63.4204 126.062 65.5396L143.212 84.1775C145.162 86.2967 148.461 86.4338 150.58 84.4838Z" fill="#0F2F52"/>
<path d="M132 137V129C132 123.477 136.477 119 142 119H156" stroke="#B9D2FB" stroke-width="7" stroke-linecap="round"/>
<path d="M255 303.5C255 313.717 218.959 322 174.5 322C130.041 322 94 313.717 94 303.5C94 293.283 130.041 285 174.5 285C218.959 285 255 293.283 255 303.5Z" fill="#28415C" fill-opacity="0.3"/>
<defs>
<filter id="filter0_d" x="126.898" y="145.075" width="96.8811" height="97.8811" filterUnits="userSpaceOnUse" color-interpolation-filters="sRGB">
<feFlood flood-opacity="0" result="BackgroundImageFix"/>
<feColorMatrix in="SourceAlpha" type="matrix" values="0 0 0 0 0 0 0 0 0 0 0 0 0 0 0 0 0 0 127 0" result="hardAlpha"/>
<feOffset dy="4"/>
<feGaussianBlur stdDeviation="1.5"/>
<feComposite in2="hardAlpha" operator="out"/>
<feColorMatrix type="matrix" values="0 0 0 0 0 0 0 0 0 0 0 0 0 0 0 0 0 0 0.1 0"/>
<feBlend mode="normal" in2="BackgroundImageFix" result="effect1_dropShadow"/>
<feBlend mode="normal" in="SourceGraphic" in2="effect1_dropShadow" result="shape"/>
</filter>
<linearGradient id="paint0_linear" x1="175.339" y1="182.139" x2="175.339" y2="312.776" gradientUnits="userSpaceOnUse">
<stop stop-color="#2A5B92"/>
<stop offset="1" stop-color="#1E4877"/>
</linearGradient>
<linearGradient id="paint1_linear" x1="175.34" y1="109.319" x2="175.34" y2="287.953" gradientUnits="userSpaceOnUse">
<stop offset="0.546139" stop-color="#96BDF9"/>
<stop offset="1" stop-color="#577FBD"/>
</linearGradient>
</defs>
</svg>
