<svg width="264" height="232" viewBox="0 0 264 232" fill="none" xmlns="http://www.w3.org/2000/svg">
<path d="M263.042 210.761C263.042 222.491 204.158 232 131.521 232C58.884 232 0 222.491 0 210.761C0 199.03 58.884 189.521 131.521 189.521C204.158 189.521 263.042 199.03 263.042 210.761Z" fill="#28415C" fill-opacity="0.3"/>
<path d="M214.107 0C215.74 0 220.642 0 223.909 1.6338C217.374 0.980282 214.923 8.98591 214.107 13.0704L214.107 0Z" fill="#96BDF9"/>
<path d="M45.6056 9.80281C45.6056 4.38886 49.9945 0 55.4084 0H217.155V194.422C217.155 199.836 212.766 204.225 207.352 204.225H45.6056V9.80281Z" fill="url(#paint0_linear)"/>
<path d="M45.6056 204.225V173.183H207.352V204.225H45.6056Z" fill="#365E89"/>
<path d="M197.549 173.183C198.457 201.943 197.852 204.253 208.976 204.225C213.487 204.214 217.155 200.463 217.155 195.951V173.183H197.549Z" fill="url(#paint1_linear)"/>
<path d="M26 173.183C26 192.286 26 204.225 45.6056 204.225V173.183H26Z" fill="#365E89"/>
<path d="M236.76 31.0422C236.76 11.9393 235.944 0 217.155 0V31.0422H236.76Z" fill="#365E89"/>
<path fill-rule="evenodd" clip-rule="evenodd" d="M71.049 48.1971C71.049 44.1366 74.3406 40.845 78.4011 40.845H191.133C195.194 40.845 198.485 44.1366 198.485 48.1971C198.485 52.2575 195.194 55.5492 191.133 55.5492H78.4011C74.3406 55.5492 71.049 52.2575 71.049 48.1971Z" fill="#365E89"/>
<path fill-rule="evenodd" clip-rule="evenodd" d="M71.049 80.0562C71.049 75.9958 74.3406 72.7041 78.4011 72.7041H151.922C155.983 72.7041 159.274 75.9958 159.274 80.0562C159.274 84.1167 155.983 87.4083 151.922 87.4083H78.4011C74.3406 87.4083 71.049 84.1167 71.049 80.0562Z" fill="#365E89"/>
<path fill-rule="evenodd" clip-rule="evenodd" d="M71.049 112.732C71.049 108.672 74.3406 105.38 78.4011 105.38H119.246C123.307 105.38 126.598 108.672 126.598 112.732C126.598 116.793 123.307 120.084 119.246 120.084H78.4011C74.3406 120.084 71.049 116.793 71.049 112.732Z" fill="#365E89"/>
<path d="M58.049 45.5V23C58.049 17.4772 62.5261 13 68.049 13H88.549" stroke="#B9D2FB" stroke-width="7" stroke-linecap="round"/>
<path fill-rule="evenodd" clip-rule="evenodd" d="M152.86 149.506C156.204 151.81 157.281 156.049 155.266 158.974L127.757 198.901C125.742 201.826 121.398 202.329 118.054 200.026C114.711 197.722 113.634 193.483 115.649 190.558L143.157 150.631C145.172 147.706 149.516 147.203 152.86 149.506Z" fill="url(#paint2_linear)"/>
<path fill-rule="evenodd" clip-rule="evenodd" d="M155.876 146.961C166.559 154.322 181.186 151.628 188.546 140.945C195.906 130.262 193.213 115.634 182.53 108.274C171.846 100.914 157.219 103.608 149.859 114.291C142.499 124.974 145.192 139.601 155.876 146.961ZM146.923 159.956C164.783 172.261 189.236 167.757 201.541 149.897C213.845 132.038 209.342 107.584 191.482 95.2796C173.622 82.9749 149.169 87.4783 136.864 105.338C124.56 123.198 129.063 147.651 146.923 159.956Z" fill="#E8F1FF"/>
<defs>
<linearGradient id="paint0_linear" x1="131.38" y1="0" x2="131.38" y2="224.648" gradientUnits="userSpaceOnUse">
<stop offset="0.546139" stop-color="#96BDF9"/>
<stop offset="1" stop-color="#577FBD"/>
</linearGradient>
<linearGradient id="paint1_linear" x1="207.352" y1="204.225" x2="207.352" y2="-0.816881" gradientUnits="userSpaceOnUse">
<stop stop-color="#577FBD"/>
<stop offset="0.304354" stop-color="#96BDF9"/>
</linearGradient>
<linearGradient id="paint2_linear" x1="157.018" y1="147.731" x2="122.905" y2="195.57" gradientUnits="userSpaceOnUse">
<stop stop-color="#BFC1C5"/>
<stop offset="0.483345" stop-color="#E8F1FF"/>
</linearGradient>
</defs>
</svg>
